# xmcd CD database file
#
# Track frame offsets:
#	150
#	14418
#	26070
#	37651
#	50824
#	62861
#	71356
#	84287
#	103533
#	123020
#	136625
#	149939
#	162444
#	176641
#	190987
#	203553
#	218540
#	232737
#	247092
#	260690
#	273994
#	288642
#
# Disc length: 4021 seconds
#
# Revision: 0
# Processed by: cddbd v1.5.2PL0 Copyright (c) Steve Scherf et al.
# Submitted via: CDex 1.51
#
DISCID=3f0fb316
DTITLE=Earl Father Hines - Rosetta - 1928-47
DYEAR=1900
DGENRE=Jazz
TTITLE0=Rosetta
TTITLE1=On the sunny side of the street
TTITLE2=My melancholy baby
TTITLE3=Body and soul
TTITLE4=Child of disordered brain
TTITLE5=Song of the islands
TTITLE6=Honeysuckle rose
TTITLE7=The Father's Getaway
TTITLE8=Reminiscing at Blue Note
TTITLE9=Blues in thirds
TTITLE10=A Monday date
TTITLE11=Beau Koo Jack
TTITLE12=I ain't got nobody
TTITLE13=Fifty-seven varieties
TTITLE14=Weather Bird
TTITLE15=Everybody loves my baby
TTITLE16=Have you ever felt that way
TTITLE17=Sister Kate
TTITLE18=Glad Rag Doll
TTITLE19=Panther Rag
TTITLE20=Just too soon
TTITLE21=Stowaway
EXTD=
EXTT0=
EXTT1=
EXTT2=
EXTT3=
EXTT4=
EXTT5=
EXTT6=
EXTT7=
EXTT8=
EXTT9=
EXTT10=
EXTT11=
EXTT12=
EXTT13=
EXTT14=
EXTT15=
EXTT16=
EXTT17=
EXTT18=
EXTT19=
EXTT20=
EXTT21=
PLAYORDER=
